<svg width="475" height="426" viewBox="0 0 475 426" fill="none" xmlns="http://www.w3.org/2000/svg">
<path fill-rule="evenodd" clip-rule="evenodd" d="M328.426 0.857291C298.24 3.96629 270.281 17.0663 247.821 38.6243L237.982 48.0673L227.957 38.7573C199.907 12.7053 170.5 0.876292 133.782 0.876292C96.9321 0.876292 66.1881 13.5103 40.2961 39.2933C13.7491 65.7283 0.854099 96.3583 0.822099 133.057C0.802099 155.605 4.6701 173.119 13.9211 192.376C23.7501 212.836 23.2411 212.28 133.852 323.126C190.245 379.638 237.076 425.876 237.921 425.876C240.027 425.876 442.42 222.972 448.321 214.945C461.487 197.036 469.658 177.983 473.385 156.495C475.366 145.08 475.379 122.798 473.413 111.257C463.939 55.6503 420.545 12.1553 364.754 2.34629C354.112 0.475293 338.391 -0.169709 328.426 0.857291ZM146.862 79.4913C161.82 83.1703 164.247 85.0743 202.664 123.261L237.902 158.288L273.164 123.304C298.494 98.1743 309.893 87.5433 313.633 85.5593C331.535 76.0653 348.764 75.6063 366.89 84.1393C375.678 88.2763 387.248 99.8953 391.737 109.089C401.957 130.021 399.011 151.919 383.431 170.82C376.007 179.827 239.337 315.876 237.713 315.876C236.214 315.876 93.8991 173.534 89.0551 167.189C78.2951 153.097 75.1601 132.343 81.2541 115.552C84.5031 106.604 88.9201 100.046 96.4391 93.0133C110.186 80.1533 129.021 75.1023 146.862 79.4913Z" fill="#8080FF"/>
<path fill-rule="evenodd" clip-rule="evenodd" d="M328.426 0.922272C298.725 3.73927 270.321 17.0283 247.803 38.6413L237.946 48.1023L229.821 40.4593C200.521 12.8963 171.339 0.876271 133.723 0.876271C96.9361 0.876271 66.1711 13.5273 40.2961 39.2933C23.2111 56.3063 12.4781 73.9783 6.02006 95.7263C2.04906 109.099 0.79606 118.205 0.80906 133.588C0.82806 155.689 4.98006 173.985 14.3771 193.376C23.8021 212.824 24.0561 213.1 133.872 323.124C190.277 379.636 237.09 425.873 237.902 425.874C239.847 425.877 433.899 232.064 443.787 220.244C459.491 201.471 469.217 180.525 473.385 156.495C475.416 144.787 475.381 122.882 473.311 110.802C466.83 72.9833 443.97 39.5833 410.926 19.6503C394.282 9.61027 378.205 4.12127 357.496 1.40627C345.097 -0.218731 341.153 -0.284728 328.426 0.922272ZM146.823 79.4133C150.341 80.2433 156.416 82.5673 160.323 84.5773C166.595 87.8063 171.546 92.3293 202.65 123.247C222.024 142.505 238.082 158.062 238.336 157.818C238.59 157.575 254.464 141.834 273.612 122.839C298.681 97.9693 309.884 87.5313 313.633 85.5503C331.584 76.0633 348.77 75.6083 366.89 84.1393C375.678 88.2763 387.248 99.8953 391.737 109.089C395.311 116.409 397.891 126.801 397.891 133.876C397.891 144.778 393.119 158.298 385.764 168.237C381.167 174.447 239.351 315.876 237.72 315.876C236.216 315.876 93.9141 173.553 89.0551 167.189C81.3811 157.139 77.1611 142.379 78.2671 129.456C80.4071 104.435 98.6431 84.3263 124.426 78.5563C128.938 77.5463 140.833 78.0013 146.823 79.4133Z" fill="#62B4FE"/>
<path fill-rule="evenodd" clip-rule="evenodd" d="M337.426 0.473292C342.029 1.22229 349.703 1.32029 349.273 0.626292C349.017 0.213292 345.797 -0.0627061 342.117 0.0122939C338.437 0.0872939 336.326 0.295292 337.426 0.473292ZM108.636 2.87029C80.4261 8.81629 59.9991 19.7063 40.2961 39.3053C23.2171 56.2933 12.4811 73.9653 6.02006 95.7263C2.04906 109.099 0.79606 118.205 0.80906 133.588C0.82806 155.689 4.98006 173.985 14.3771 193.376C21.6681 208.42 29.7611 218.642 53.3531 242.605C65.4131 254.854 75.5751 264.876 75.9341 264.876C76.2941 264.876 70.5651 258.74 63.2021 251.24L49.8161 237.603L76.9031 210.551L103.99 183.498L98.6181 177.937C82.7201 161.476 76.7451 147.244 78.2671 129.456C81.6921 89.4123 124.627 65.9573 160.313 84.6333C164.728 86.9453 170.489 91.2893 175.504 96.0893L183.582 103.822L211.004 76.3273C235.865 51.4003 239.92 47.2423 238.466 48.1693C238.214 48.3303 234.501 45.0683 230.216 40.9193C208.26 19.6613 185.657 7.77029 157.066 2.43629C145.163 0.215294 120.166 0.439292 108.636 2.87029ZM368.739 3.55929C369.46 3.84829 370.323 3.81229 370.655 3.48029C370.987 3.14829 370.397 2.91229 369.343 2.95529C368.178 3.00329 367.941 3.24029 368.739 3.55929ZM381.694 7.04429C382.276 7.62629 383.341 7.90429 384.063 7.66429C384.812 7.41429 384.358 6.96129 383.006 6.60729C381.343 6.17229 380.952 6.30229 381.694 7.04429ZM417.926 24.2543C417.926 24.4613 418.714 25.2493 419.676 26.0043C421.262 27.2473 421.297 27.2123 420.054 25.6263C418.747 23.9603 417.926 23.4313 417.926 24.2543ZM425.926 30.2543C425.926 30.4613 426.714 31.2493 427.676 32.0043C429.262 33.2473 429.297 33.2123 428.054 31.6263C426.747 29.9603 425.926 29.4313 425.926 30.2543ZM428.926 34.2693C428.926 34.4853 429.624 34.9303 430.478 35.2583C431.368 35.5993 431.769 35.4313 431.419 34.8653C430.832 33.9143 428.926 33.4593 428.926 34.2693ZM432.926 37.2263C432.926 37.4573 434.106 38.4193 435.549 39.3653C436.992 40.3103 437.867 40.5893 437.493 39.9853C436.78 38.8313 432.926 36.5023 432.926 37.2263ZM245.85 40.5073C243.538 43.0173 243.529 43.0763 245.657 41.7793C246.884 41.0313 248.107 39.8473 248.375 39.1483C249.091 37.2823 248.557 37.5693 245.85 40.5073ZM439.926 44.2543C439.926 44.4613 440.714 45.2493 441.676 46.0043C443.262 47.2473 443.297 47.2123 442.054 45.6263C440.747 43.9603 439.926 43.4313 439.926 44.2543ZM450.896 57.8203C451.469 58.8903 452.431 60.0703 453.035 60.4433C453.639 60.8173 453.36 59.9423 452.415 58.4993C450.413 55.4443 449.377 54.9813 450.896 57.8203ZM454.926 63.8763C455.515 64.9763 456.221 65.8763 456.496 65.8763C456.771 65.8763 456.515 64.9763 455.926 63.8763C455.337 62.7763 454.631 61.8763 454.356 61.8763C454.081 61.8763 454.337 62.7763 454.926 63.8763ZM457.926 70.2543C457.926 70.4613 458.611 71.2003 459.449 71.8953C460.722 72.9523 460.869 72.8903 460.342 71.5173C459.804 70.1163 457.926 69.1333 457.926 70.2543ZM297.331 98.1263L295.426 100.376L297.676 98.4713C299.79 96.6813 300.381 95.8763 299.581 95.8763C299.391 95.8763 298.379 96.8883 297.331 98.1263ZM292.331 103.126L290.426 105.376L292.676 103.471C294.79 101.681 295.381 100.876 294.581 100.876C294.391 100.876 293.379 101.888 292.331 103.126ZM184.926 105.254C184.926 105.461 185.713 106.249 186.676 107.004C188.262 108.247 188.297 108.212 187.054 106.626C185.747 104.96 184.926 104.431 184.926 105.254ZM284.331 111.126L282.426 113.376L284.676 111.471C286.79 109.681 287.381 108.876 286.581 108.876C286.391 108.876 285.379 109.888 284.331 111.126ZM198.926 119.376C200.218 120.751 201.5 121.876 201.775 121.876C202.05 121.876 201.218 120.751 199.926 119.376C198.634 118.001 197.352 116.876 197.077 116.876C196.802 116.876 197.634 118.001 198.926 119.376ZM276.331 119.126L274.426 121.376L276.676 119.471C278.79 117.681 279.381 116.876 278.581 116.876C278.391 116.876 277.379 117.888 276.331 119.126ZM474.158 120.876C474.158 122.801 474.364 123.589 474.615 122.626C474.867 121.663 474.867 120.089 474.615 119.126C474.364 118.163 474.158 118.951 474.158 120.876ZM269.363 126.126L266.426 129.376L269.676 126.439C272.705 123.701 273.386 122.876 272.613 122.876C272.441 122.876 270.978 124.339 269.363 126.126ZM397.005 126.459C397.053 127.624 397.29 127.861 397.609 127.064C397.898 126.342 397.862 125.479 397.53 125.147C397.198 124.815 396.962 125.405 397.005 126.459ZM208.926 129.376C210.218 130.751 211.5 131.876 211.775 131.876C212.05 131.876 211.218 130.751 209.926 129.376C208.634 128.001 207.352 126.876 207.077 126.876C206.802 126.876 207.634 128.001 208.926 129.376ZM214.926 135.376C216.218 136.751 217.5 137.876 217.775 137.876C218.05 137.876 217.218 136.751 215.926 135.376C214.634 134.001 213.352 132.876 213.077 132.876C212.802 132.876 213.634 134.001 214.926 135.376ZM260.331 135.126L258.426 137.376L260.676 135.471C261.914 134.423 262.926 133.411 262.926 133.221C262.926 132.421 262.121 133.012 260.331 135.126ZM251.85 143.626L249.426 146.376L252.176 143.952C253.688 142.618 254.926 141.381 254.926 141.202C254.926 140.417 254.116 141.056 251.85 143.626ZM224.926 145.376C226.218 146.751 227.5 147.876 227.775 147.876C228.05 147.876 227.218 146.751 225.926 145.376C224.634 144.001 223.352 142.876 223.077 142.876C222.802 142.876 223.634 144.001 224.926 145.376ZM474.121 147.376C474.141 149.026 474.365 149.58 474.619 148.607C474.873 147.634 474.856 146.284 474.582 145.607C474.308 144.93 474.101 145.726 474.121 147.376ZM228.926 149.254C228.926 149.461 229.713 150.249 230.676 151.004C232.262 152.247 232.297 152.212 231.054 150.626C229.747 148.96 228.926 148.431 228.926 149.254ZM236.152 156.455C237.102 157.446 238.094 158.042 238.357 157.779C238.62 157.516 237.843 156.705 236.631 155.976C234.524 154.711 234.503 154.733 236.152 156.455ZM461.088 192.419C459.413 196.096 459.733 196.881 461.544 193.538C462.39 191.976 462.895 190.512 462.667 190.283C462.438 190.055 461.728 191.016 461.088 192.419ZM454.926 203.876C454.337 204.976 454.081 205.876 454.356 205.876C454.631 205.876 455.337 204.976 455.926 203.876C456.515 202.776 456.771 201.876 456.496 201.876C456.221 201.876 455.515 202.776 454.926 203.876ZM451.158 209.626C448.569 213.365 447.728 214.876 448.234 214.876C448.468 214.876 449.851 213.076 451.307 210.876C454.266 206.405 454.137 205.324 451.158 209.626ZM438.331 226.126L436.426 228.376L438.676 226.471C439.914 225.423 440.926 224.411 440.926 224.221C440.926 223.421 440.121 224.012 438.331 226.126ZM430.02 233.876C427.355 236.626 425.476 238.876 425.844 238.876C426.212 238.876 428.636 236.626 431.232 233.876C433.827 231.126 435.706 228.876 435.408 228.876C435.109 228.876 432.684 231.126 430.02 233.876ZM83.7121 272.376C84.2791 273.476 86.021 275.499 87.5841 276.872L90.4261 279.369L87.4341 275.872C82.6921 270.332 82.6271 270.271 83.7121 272.376ZM90.9261 279.758C90.9261 280.308 91.3761 281.036 91.9261 281.376C92.4761 281.716 92.9261 281.544 92.9261 280.994C92.9261 280.444 92.4761 279.716 91.9261 279.376C91.3761 279.036 90.9261 279.208 90.9261 279.758ZM381.798 282.626C380.555 284.212 380.59 284.247 382.176 283.004C383.138 282.249 383.926 281.461 383.926 281.254C383.926 280.431 383.105 280.96 381.798 282.626ZM110.415 299.66C119.759 309.129 127.591 316.876 127.82 316.876C128.744 316.876 102.358 290.121 96.2951 284.91C94.7171 283.553 101.071 290.191 110.415 299.66ZM265.892 288.581C260.726 293.973 260.678 294.069 265.008 290.331C268.967 286.913 272.565 282.876 271.65 282.876C271.489 282.876 268.898 285.443 265.892 288.581ZM377.798 286.626C376.555 288.212 376.59 288.247 378.176 287.004C379.842 285.697 380.371 284.876 379.548 284.876C379.341 284.876 378.553 285.664 377.798 286.626ZM373.798 290.626C372.555 292.212 372.59 292.247 374.176 291.004C375.842 289.697 376.371 288.876 375.548 288.876C375.341 288.876 374.553 289.664 373.798 290.626ZM369.798 294.626C368.555 296.212 368.59 296.247 370.176 295.004C371.842 293.697 372.371 292.876 371.548 292.876C371.341 292.876 370.553 293.664 369.798 294.626ZM365.798 298.626C364.555 300.212 364.59 300.247 366.176 299.004C367.842 297.697 368.371 296.876 367.548 296.876C367.341 296.876 366.553 297.664 365.798 298.626ZM355.403 309.126L347.426 317.376L355.676 309.399C363.338 301.991 364.382 300.876 363.653 300.876C363.502 300.876 359.79 304.588 355.403 309.126ZM128.926 318.22C128.926 318.375 130.338 319.824 132.064 321.439C135.188 324.363 135.194 324.365 133.504 321.71C132.123 319.542 128.926 317.105 128.926 318.22ZM336.51 327.517C335.983 328.89 336.13 328.952 337.403 327.895C339.138 326.455 339.319 325.876 338.033 325.876C337.542 325.876 336.857 326.615 336.51 327.517ZM332.798 331.626C331.555 333.212 331.59 333.247 333.176 332.004C334.842 330.697 335.371 329.876 334.548 329.876C334.341 329.876 333.553 330.664 332.798 331.626ZM328.798 335.626C327.555 337.212 327.59 337.247 329.176 336.004C330.842 334.697 331.371 333.876 330.548 333.876C330.341 333.876 329.553 334.664 328.798 335.626ZM147.49 336.169C147.866 337.155 148.425 337.71 148.733 337.402C149.041 337.095 148.734 336.288 148.05 335.609C147.062 334.629 146.948 334.744 147.49 336.169ZM324.798 339.626C323.555 341.212 323.59 341.247 325.176 340.004C326.842 338.697 327.371 337.876 326.548 337.876C326.341 337.876 325.553 338.664 324.798 339.626ZM320.51 343.517C319.983 344.89 320.13 344.952 321.403 343.895C323.138 342.455 323.319 341.876 322.033 341.876C321.542 341.876 320.857 342.615 320.51 343.517ZM316.798 347.626C315.555 349.212 315.59 349.247 317.176 348.004C318.842 346.697 319.371 345.876 318.548 345.876C318.341 345.876 317.553 346.664 316.798 347.626ZM312.798 351.626C311.555 353.212 311.59 353.247 313.176 352.004C314.842 350.697 315.371 349.876 314.548 349.876C314.341 349.876 313.553 350.664 312.798 351.626ZM163.49 352.169C163.866 353.155 164.425 353.71 164.733 353.402C165.041 353.095 164.734 352.288 164.05 351.609C163.062 350.629 162.948 350.744 163.49 352.169ZM308.798 355.626C307.555 357.212 307.59 357.247 309.176 356.004C310.842 354.697 311.371 353.876 310.548 353.876C310.341 353.876 309.553 354.664 308.798 355.626ZM301.388 363.126L296.426 368.376L301.676 363.414C304.563 360.684 306.926 358.322 306.926 358.164C306.926 357.417 306 358.248 301.388 363.126ZM195.417 384.663C206.962 396.33 216.603 405.876 216.841 405.876C217.08 405.876 216.184 404.711 214.85 403.287C211.046 399.225 175.965 364.43 175.153 363.913C174.753 363.659 183.872 372.996 195.417 384.663ZM291.872 372.626L288.426 376.376L292.176 372.93C294.239 371.034 295.926 369.347 295.926 369.18C295.926 368.416 295.08 369.136 291.872 372.626ZM283.872 380.626L280.426 384.376L284.176 380.93C286.239 379.034 287.926 377.347 287.926 377.18C287.926 376.416 287.08 377.136 283.872 380.626ZM272.399 392.126L265.426 399.376L272.676 392.403C276.664 388.568 279.926 385.305 279.926 385.153C279.926 384.419 278.876 385.392 272.399 392.126ZM227.836 416.708C228.376 417.716 229.602 419.178 230.563 419.958C231.643 420.836 231.401 420.137 229.929 418.126C227.303 414.538 226.318 413.871 227.836 416.708ZM235.49 424.169C235.866 425.155 236.425 425.71 236.733 425.402C237.041 425.095 236.734 424.288 236.05 423.609C235.062 422.629 234.948 422.744 235.49 424.169Z" fill="#6699CC"/>
<path fill-rule="evenodd" clip-rule="evenodd" d="M338.654 0.598291C340.429 0.819291 343.579 0.822291 345.654 0.606291C347.728 0.389291 346.276 0.20929 342.426 0.20429C338.576 0.20029 336.878 0.377291 338.654 0.598291ZM116.104 2.09729C115.708 2.49429 113.368 3.03729 110.905 3.30429C108.441 3.57029 103.726 4.50529 100.426 5.38029C97.126 6.25529 93.751 7.14129 92.926 7.34729C92.101 7.55429 91.314 7.81429 91.176 7.92429C91.038 8.03529 90.513 8.18229 90.009 8.25129C89.505 8.32029 88.755 8.71329 88.343 9.12629C87.93 9.53929 86.543 9.87629 85.259 9.87629C83.976 9.87629 82.926 10.3533 82.926 10.9353C82.926 11.5173 82.476 11.7163 81.926 11.3763C81.376 11.0363 80.926 11.2613 80.926 11.8763C80.926 12.4913 80.507 12.7353 79.995 12.4193C79.483 12.1023 78.777 12.3083 78.426 12.8763C78.075 13.4443 77.369 13.6503 76.857 13.3333C76.345 13.0173 75.926 13.2613 75.926 13.8763C75.926 14.4913 75.476 14.7163 74.926 14.3763C74.376 14.0363 73.926 14.1643 73.926 14.6603C73.926 15.1563 71.788 16.6423 69.176 17.9633C66.564 19.2843 63.827 20.9343 63.095 21.6293C62.364 22.3253 61.282 22.5963 60.691 22.2313C60.1 21.8663 59.882 21.9963 60.207 22.5213C60.531 23.0463 59.879 24.0493 58.757 24.7503C57.082 25.7963 56.838 25.7873 57.396 24.7003C57.769 23.9723 57.103 24.6133 55.917 26.1263C54.73 27.6393 53.182 28.8763 52.477 28.8763C50.422 28.8763 45.843 32.9333 46.571 34.1113C46.95 34.7243 46.768 34.8973 46.147 34.5133C45.543 34.1393 44.283 35.1563 43.309 36.8043C42.347 38.4343 41.192 39.5403 40.743 39.2633C40.293 38.9853 39.926 39.4333 39.926 40.2583C39.926 41.0833 39.406 42.0793 38.771 42.4713C37.986 42.9573 37.89 42.7363 38.47 41.7813C38.939 41.0083 37.433 42.1563 35.124 44.3323C32.815 46.5083 30.926 48.6643 30.926 49.1243C30.926 49.5843 30.467 50.5043 29.906 51.1683C25.293 56.6323 23.837 58.6773 22.836 61.0943C22.202 62.6243 21.261 63.8763 20.746 63.8763C20.23 63.8763 20.086 64.3263 20.426 64.8763C20.766 65.4263 20.636 65.8763 20.137 65.8763C19.638 65.8763 18.418 67.6763 17.426 69.8763C16.434 72.0763 15.214 73.8763 14.715 73.8763C14.216 73.8763 14.086 74.3263 14.426 74.8763C14.766 75.4263 14.541 75.8763 13.926 75.8763C13.311 75.8763 13.086 76.3263 13.426 76.8763C13.766 77.4263 13.548 77.8763 12.941 77.8763C12.335 77.8763 11.946 78.4393 12.078 79.1263C12.443 81.0293 10.919 84.8763 9.80004 84.8763C9.25404 84.8763 9.05404 85.2743 9.35504 85.7613C10.032 86.8563 7.95404 93.1413 6.62504 94.0203C6.09004 94.3743 5.88304 95.8723 6.16504 97.3483C6.49804 99.0893 6.19504 100.219 5.30204 100.562C4.42304 100.899 3.92604 102.676 3.92604 105.483C3.92604 107.899 3.54004 109.876 3.06904 109.876C2.59704 109.876 2.29504 111.339 2.39804 113.126C2.50004 114.913 2.39504 116.736 2.16504 117.175C1.93504 117.615 1.61904 120.54 1.46304 123.675C1.30704 126.811 0.826035 130.459 0.395036 131.782C-0.121964 133.369 -0.0349639 133.97 0.651036 133.546C1.33104 133.126 1.77504 135.749 1.93704 141.14C2.07204 145.67 2.23804 150.951 2.30504 152.876C2.37104 154.801 2.72504 156.604 3.09004 156.882C3.45504 157.16 3.92404 159.414 4.13204 161.89C4.33904 164.366 4.85404 166.951 5.27704 167.634C5.69904 168.317 5.76604 169.326 5.42604 169.876C5.08604 170.426 5.20904 170.876 5.69904 170.876C6.79004 170.876 9.04204 177.879 8.32404 179.041C8.04004 179.5 8.23604 179.876 8.75904 179.876C9.59204 179.876 10.574 182.32 10.967 185.376C11.038 185.926 11.525 186.893 12.049 187.524C12.573 188.155 13.199 189.697 13.44 190.95C13.682 192.204 14.452 193.593 15.153 194.037C15.853 194.482 16.07 194.852 15.636 194.861C15.201 194.869 15.949 196.067 17.298 197.522C18.648 198.977 19.54 200.719 19.281 201.393C19.023 202.067 19.512 202.887 20.369 203.216C21.225 203.544 21.926 204.619 21.926 205.604C21.926 206.589 22.87 207.984 24.023 208.705C25.177 209.425 25.858 210.278 25.536 210.599C25.215 210.921 27.406 213.979 30.406 217.396C33.406 220.813 35.538 223.966 35.143 224.403C34.749 224.839 34.93 224.909 35.545 224.558C36.476 224.027 43.259 230.661 45.731 234.521C46.113 235.118 47.351 235.895 48.481 236.247C50.176 236.775 55.119 232.309 76.731 210.728C91.138 196.341 102.925 184.301 102.925 183.973C102.922 182.809 97.7 177.38 96.82 177.626C96.328 177.764 96.038 177.437 96.176 176.9C96.313 176.363 95.076 174.755 93.426 173.328C91.776 171.9 91.101 171.023 91.926 171.38C92.751 171.737 92.301 171.035 90.926 169.82C89.551 168.605 88.539 167.221 88.676 166.744C88.814 166.266 88.485 165.876 87.946 165.876C86.83 165.876 82.713 158.372 82.209 155.419C82.026 154.343 81.324 153.113 80.651 152.685C79.977 152.257 79.76 151.9 80.168 151.891C80.576 151.883 80.216 150.143 79.369 148.024C78.521 145.905 77.921 143.768 78.035 143.274C78.15 142.78 77.885 141.553 77.447 140.547C76.503 138.378 77.368 123.582 78.549 121.691C79.386 120.35 79.958 118.364 80.151 116.126C80.211 115.439 80.682 114.876 81.2 114.876C81.717 114.876 81.881 114.201 81.564 113.376C81.248 112.551 81.451 111.876 82.016 111.876C82.582 111.876 82.766 111.426 82.426 110.876C82.086 110.326 82.311 109.876 82.926 109.876C83.541 109.876 83.766 109.426 83.426 108.876C83.086 108.326 83.311 107.876 83.926 107.876C84.541 107.876 84.764 107.423 84.422 106.869C84.079 106.315 84.503 105.592 85.363 105.262C86.222 104.932 86.926 104.035 86.926 103.269C86.926 102.503 87.403 101.876 87.985 101.876C88.567 101.876 88.879 101.538 88.677 101.126C88.475 100.714 91.149 97.5793 94.618 94.1603C98.087 90.7413 100.933 88.2663 100.941 88.6603C100.95 89.0543 101.287 88.8743 101.691 88.2613C102.764 86.6333 113.08 81.0053 115.959 80.4773C117.316 80.2283 118.539 79.9353 118.676 79.8253C118.813 79.7163 119.264 79.5633 119.676 79.4863C120.088 79.4093 120.981 78.9933 121.659 78.5623C124.043 77.0483 138.534 76.5913 142.515 77.9063C144.621 78.6013 147.038 79.2593 147.885 79.3683C151.868 79.8823 155.926 81.2113 155.926 82.0013C155.926 82.4823 156.981 82.8763 158.271 82.8763C159.561 82.8763 161.431 83.7763 162.426 84.8763C163.421 85.9763 164.819 86.8763 165.531 86.8763C166.244 86.8763 167.285 87.6633 167.846 88.6263C168.407 89.5893 168.879 89.9623 168.896 89.4573C168.912 88.9523 172.315 91.8253 176.458 95.8423C180.601 99.8583 184.191 102.972 184.437 102.761C184.683 102.549 196.812 90.4813 211.391 75.9433L237.897 49.5113L232.718 44.4433C229.87 41.6563 225.293 37.1263 222.547 34.3763C219.802 31.6263 217.898 30.0513 218.317 30.8763C218.736 31.7013 218.085 31.2513 216.87 29.8763C215.655 28.5013 214.284 27.4843 213.824 27.6163C213.363 27.7483 212.515 26.9773 211.941 25.9033C211.36 24.8183 210.27 24.1913 209.487 24.4913C208.681 24.8003 207.585 24.1073 206.922 22.8683C206.285 21.6783 205.538 20.9313 205.262 21.2073C204.985 21.4833 203.88 20.8303 202.806 19.7563C201.732 18.6823 200.419 18.0713 199.89 18.3993C199.36 18.7263 198.926 18.5173 198.926 17.9353C198.926 17.3533 198.444 16.8763 197.855 16.8763C197.265 16.8763 196.104 16.1973 195.274 15.3673C194.444 14.5373 193.351 14.1133 192.845 14.4263C192.34 14.7383 191.926 14.5173 191.926 13.9353C191.926 13.3533 191.447 12.8763 190.862 12.8763C190.277 12.8763 187.239 11.7013 184.112 10.2643C180.985 8.82729 177.414 7.59029 176.177 7.51429C174.94 7.43829 173.927 6.99029 173.927 6.51929C173.926 6.04829 173.265 5.91629 172.458 6.22529C171.651 6.53529 170.705 6.32829 170.357 5.76429C170.009 5.20129 169.109 4.97629 168.357 5.26429C167.605 5.55329 166.705 5.32829 166.357 4.76429C166.009 4.20129 165.109 3.97629 164.357 4.26429C163.605 4.55329 162.723 4.35729 162.397 3.82929C162.07 3.30129 160.706 3.14429 159.365 3.48129C157.994 3.82529 156.926 3.65429 156.926 3.09029C156.926 2.53929 155.914 2.06529 154.676 2.03929C129.785 1.49629 116.686 1.51629 116.104 2.09729ZM434.926 38.2543C434.926 38.4613 435.714 39.2493 436.676 40.0043C438.262 41.2473 438.297 41.2123 437.054 39.6263C435.747 37.9603 434.926 37.4313 434.926 38.2543ZM198.926 119.376C200.218 120.751 201.5 121.876 201.775 121.876C202.05 121.876 201.218 120.751 199.926 119.376C198.634 118.001 197.352 116.876 197.077 116.876C196.802 116.876 197.634 118.001 198.926 119.376ZM474.084 121.876C474.084 123.251 474.311 123.814 474.588 123.126C474.866 122.439 474.866 121.314 474.588 120.626C474.311 119.939 474.084 120.501 474.084 121.876ZM270.798 124.626C269.555 126.212 269.59 126.247 271.176 125.004C272.842 123.697 273.371 122.876 272.548 122.876C272.341 122.876 271.553 123.663 270.798 124.626ZM208.926 129.376C210.218 130.751 211.5 131.876 211.775 131.876C212.05 131.876 211.218 130.751 209.926 129.376C208.634 128.001 207.352 126.876 207.077 126.876C206.802 126.876 207.634 128.001 208.926 129.376ZM214.926 135.376C216.218 136.751 217.5 137.876 217.775 137.876C218.05 137.876 217.218 136.751 215.926 135.376C214.634 134.001 213.352 132.876 213.077 132.876C212.802 132.876 213.634 134.001 214.926 135.376ZM224.926 145.376C226.218 146.751 227.5 147.876 227.775 147.876C228.05 147.876 227.218 146.751 225.926 145.376C224.634 144.001 223.352 142.876 223.077 142.876C222.802 142.876 223.634 144.001 224.926 145.376ZM474.005 146.459C474.053 147.624 474.29 147.861 474.609 147.064C474.898 146.342 474.862 145.479 474.53 145.147C474.198 144.815 473.962 145.405 474.005 146.459ZM228.926 149.254C228.926 149.461 229.713 150.249 230.676 151.004C232.262 152.247 232.297 152.212 231.054 150.626C229.747 148.96 228.926 148.431 228.926 149.254ZM236.152 156.455C237.102 157.446 238.094 158.042 238.357 157.779C238.62 157.516 237.843 156.705 236.631 155.976C234.524 154.711 234.503 154.733 236.152 156.455ZM438.798 225.626C437.555 227.212 437.59 227.247 439.176 226.004C440.138 225.249 440.926 224.461 440.926 224.254C440.926 223.431 440.105 223.96 438.798 225.626ZM36.926 226.254C36.926 226.461 37.714 227.249 38.676 228.004C40.262 229.247 40.297 229.212 39.054 227.626C37.747 225.96 36.926 225.431 36.926 226.254ZM265.892 288.626L260.426 294.376L266.176 288.91C271.518 283.832 272.384 282.876 271.642 282.876C271.486 282.876 268.898 285.463 265.892 288.626Z" fill="#4794FE"/>
<path fill-rule="evenodd" clip-rule="evenodd" d="M338.654 0.598291C340.429 0.819291 343.579 0.822291 345.654 0.606291C347.728 0.389291 346.276 0.20929 342.426 0.20429C338.576 0.20029 336.878 0.377291 338.654 0.598291ZM47.6151 32.1263C44.5011 35.2103 44.4891 35.2493 47.3801 32.8843C49.0551 31.5133 50.8541 30.0513 51.3761 29.6343C51.8991 29.2173 52.0041 28.8763 51.6111 28.8763C51.2181 28.8763 49.4201 30.3393 47.6151 32.1263ZM434.926 38.2543C434.926 38.4613 435.714 39.2493 436.676 40.0043C438.262 41.2473 438.297 41.2123 437.054 39.6263C435.747 37.9603 434.926 37.4313 434.926 38.2543ZM32.8501 46.6263L30.4261 49.3763L33.1761 46.9523C35.7461 44.6863 36.3851 43.8763 35.6001 43.8763C35.4211 43.8763 34.1841 45.1133 32.8501 46.6263ZM23.9261 58.8763C23.3371 59.9763 23.0811 60.8763 23.3561 60.8763C23.6311 60.8763 24.3371 59.9763 24.9261 58.8763C25.5151 57.7763 25.7711 56.8763 25.4961 56.8763C25.2211 56.8763 24.5151 57.7763 23.9261 58.8763ZM92.3311 96.1263L90.4261 98.3763L92.6761 96.4713C94.7901 94.6813 95.3811 93.8763 94.5811 93.8763C94.3911 93.8763 93.3791 94.8883 92.3311 96.1263ZM198.926 119.376C200.218 120.751 201.5 121.876 201.775 121.876C202.05 121.876 201.218 120.751 199.926 119.376C198.634 118.001 197.352 116.876 197.077 116.876C196.802 116.876 197.634 118.001 198.926 119.376ZM474.084 121.876C474.084 123.251 474.311 123.814 474.588 123.126C474.866 122.439 474.866 121.314 474.588 120.626C474.311 119.939 474.084 120.501 474.084 121.876ZM270.798 124.626C269.555 126.212 269.59 126.247 271.176 125.004C272.842 123.697 273.371 122.876 272.548 122.876C272.341 122.876 271.553 123.663 270.798 124.626ZM208.926 129.376C210.218 130.751 211.5 131.876 211.775 131.876C212.05 131.876 211.218 130.751 209.926 129.376C208.634 128.001 207.352 126.876 207.077 126.876C206.802 126.876 207.634 128.001 208.926 129.376ZM0.00505753 132.459C0.0530575 133.624 0.290057 133.861 0.609057 133.064C0.898057 132.342 0.862057 131.479 0.530057 131.147C0.198057 130.815 -0.0379425 131.405 0.00505753 132.459ZM214.926 135.376C216.218 136.751 217.5 137.876 217.775 137.876C218.05 137.876 217.218 136.751 215.926 135.376C214.634 134.001 213.352 132.876 213.077 132.876C212.802 132.876 213.634 134.001 214.926 135.376ZM224.926 145.376C226.218 146.751 227.5 147.876 227.775 147.876C228.05 147.876 227.218 146.751 225.926 145.376C224.634 144.001 223.352 142.876 223.077 142.876C222.802 142.876 223.634 144.001 224.926 145.376ZM474.005 146.459C474.053 147.624 474.29 147.861 474.609 147.064C474.898 146.342 474.862 145.479 474.53 145.147C474.198 144.815 473.962 145.405 474.005 146.459ZM228.926 149.254C228.926 149.461 229.713 150.249 230.676 151.004C232.262 152.247 232.297 152.212 231.054 150.626C229.747 148.96 228.926 148.431 228.926 149.254ZM236.152 156.455C237.102 157.446 238.094 158.042 238.357 157.779C238.62 157.516 237.843 156.705 236.631 155.976C234.524 154.711 234.503 154.733 236.152 156.455ZM89.9261 169.254C89.9261 169.461 90.7131 170.249 91.6761 171.004C93.2621 172.247 93.2971 172.212 92.0541 170.626C90.7471 168.96 89.9261 168.431 89.9261 169.254ZM95.9261 176.376C97.2181 177.751 98.5001 178.876 98.7751 178.876C99.0501 178.876 98.2181 177.751 96.9261 176.376C95.6341 175.001 94.3521 173.876 94.0771 173.876C93.8021 173.876 94.6341 175.001 95.9261 176.376ZM13.4901 192.169C13.8661 193.155 14.4251 193.71 14.7331 193.402C15.0411 193.095 14.7341 192.288 14.0501 191.609C13.0621 190.629 12.9481 190.744 13.4901 192.169ZM18.0261 200.581C18.7551 201.793 19.5661 202.57 19.8291 202.307C20.0921 202.044 19.4961 201.052 18.5051 200.102C16.7831 198.453 16.7611 198.474 18.0261 200.581ZM438.798 225.626C437.555 227.212 437.59 227.247 439.176 226.004C440.138 225.249 440.926 224.461 440.926 224.254C440.926 223.431 440.105 223.96 438.798 225.626ZM36.9261 226.254C36.9261 226.461 37.7141 227.249 38.6761 228.004C40.2621 229.247 40.2971 229.212 39.0541 227.626C37.7471 225.96 36.9261 225.431 36.9261 226.254ZM265.892 288.626L260.426 294.376L266.176 288.91C271.518 283.832 272.384 282.876 271.642 282.876C271.486 282.876 268.898 285.463 265.892 288.626Z" fill="#6080BF"/>
<path fill-rule="evenodd" clip-rule="evenodd" d="M338.654 0.598291C340.429 0.819291 343.579 0.822291 345.654 0.606291C347.728 0.389291 346.276 0.20929 342.426 0.20429C338.576 0.20029 336.878 0.377291 338.654 0.598291ZM434.926 38.2543C434.926 38.4613 435.714 39.2493 436.676 40.0043C438.262 41.2473 438.297 41.2123 437.054 39.6263C435.747 37.9603 434.926 37.4313 434.926 38.2543ZM198.926 119.376C200.218 120.751 201.5 121.876 201.775 121.876C202.05 121.876 201.218 120.751 199.926 119.376C198.634 118.001 197.352 116.876 197.077 116.876C196.802 116.876 197.634 118.001 198.926 119.376ZM474.084 121.876C474.084 123.251 474.311 123.814 474.588 123.126C474.866 122.439 474.866 121.314 474.588 120.626C474.311 119.939 474.084 120.501 474.084 121.876ZM270.798 124.626C269.555 126.212 269.59 126.247 271.176 125.004C272.842 123.697 273.371 122.876 272.548 122.876C272.341 122.876 271.553 123.663 270.798 124.626ZM208.926 129.376C210.218 130.751 211.5 131.876 211.775 131.876C212.05 131.876 211.218 130.751 209.926 129.376C208.634 128.001 207.352 126.876 207.077 126.876C206.802 126.876 207.634 128.001 208.926 129.376ZM0.00505753 132.459C0.0530575 133.624 0.290057 133.861 0.609057 133.064C0.898057 132.342 0.862057 131.479 0.530057 131.147C0.198057 130.815 -0.0379425 131.405 0.00505753 132.459ZM214.926 135.376C216.218 136.751 217.5 137.876 217.775 137.876C218.05 137.876 217.218 136.751 215.926 135.376C214.634 134.001 213.352 132.876 213.077 132.876C212.802 132.876 213.634 134.001 214.926 135.376ZM224.926 145.376C226.218 146.751 227.5 147.876 227.775 147.876C228.05 147.876 227.218 146.751 225.926 145.376C224.634 144.001 223.352 142.876 223.077 142.876C222.802 142.876 223.634 144.001 224.926 145.376ZM474.005 146.459C474.053 147.624 474.29 147.861 474.609 147.064C474.898 146.342 474.862 145.479 474.53 145.147C474.198 144.815 473.962 145.405 474.005 146.459ZM228.926 149.254C228.926 149.461 229.713 150.249 230.676 151.004C232.262 152.247 232.297 152.212 231.054 150.626C229.747 148.96 228.926 148.431 228.926 149.254ZM236.152 156.455C237.102 157.446 238.094 158.042 238.357 157.779C238.62 157.516 237.843 156.705 236.631 155.976C234.524 154.711 234.503 154.733 236.152 156.455ZM438.798 225.626C437.555 227.212 437.59 227.247 439.176 226.004C440.138 225.249 440.926 224.461 440.926 224.254C440.926 223.431 440.105 223.96 438.798 225.626ZM265.892 288.626L260.426 294.376L266.176 288.91C271.518 283.832 272.384 282.876 271.642 282.876C271.486 282.876 268.898 285.463 265.892 288.626Z" fill="#00FFFF"/>
<path fill-rule="evenodd" clip-rule="evenodd" d="M198.926 119.376C200.218 120.751 201.5 121.876 201.775 121.876C202.05 121.876 201.218 120.751 199.926 119.376C198.634 118.001 197.352 116.876 197.077 116.876C196.802 116.876 197.634 118.001 198.926 119.376ZM474.084 121.876C474.084 123.251 474.311 123.814 474.588 123.126C474.866 122.439 474.866 121.314 474.588 120.626C474.311 119.939 474.084 120.501 474.084 121.876ZM270.798 124.626C269.555 126.212 269.59 126.247 271.176 125.004C272.842 123.697 273.371 122.876 272.548 122.876C272.341 122.876 271.553 123.663 270.798 124.626ZM208.926 129.376C210.218 130.751 211.5 131.876 211.775 131.876C212.05 131.876 211.218 130.751 209.926 129.376C208.634 128.001 207.352 126.876 207.077 126.876C206.802 126.876 207.634 128.001 208.926 129.376ZM214.926 135.376C216.218 136.751 217.5 137.876 217.775 137.876C218.05 137.876 217.218 136.751 215.926 135.376C214.634 134.001 213.352 132.876 213.077 132.876C212.802 132.876 213.634 134.001 214.926 135.376ZM224.926 145.376C226.218 146.751 227.5 147.876 227.775 147.876C228.05 147.876 227.218 146.751 225.926 145.376C224.634 144.001 223.352 142.876 223.077 142.876C222.802 142.876 223.634 144.001 224.926 145.376ZM474.005 146.459C474.053 147.624 474.29 147.861 474.609 147.064C474.898 146.342 474.862 145.479 474.53 145.147C474.198 144.815 473.962 145.405 474.005 146.459ZM228.926 149.254C228.926 149.461 229.713 150.249 230.676 151.004C232.262 152.247 232.297 152.212 231.054 150.626C229.747 148.96 228.926 148.431 228.926 149.254ZM236.152 156.455C237.102 157.446 238.094 158.042 238.357 157.779C238.62 157.516 237.843 156.705 236.631 155.976C234.524 154.711 234.503 154.733 236.152 156.455ZM268.363 286.126L265.426 289.376L268.676 286.439C271.705 283.701 272.386 282.876 271.613 282.876C271.441 282.876 269.978 284.338 268.363 286.126Z" fill="#80BFBF"/>
<path fill-rule="evenodd" clip-rule="evenodd" d="M268.363 286.126L265.426 289.376L268.676 286.439C271.705 283.701 272.386 282.876 271.613 282.876C271.441 282.876 269.978 284.338 268.363 286.126Z" fill="white"/>
</svg>
